<svg id="Layer_1" data-name="Layer 1" xmlns="http://www.w3.org/2000/svg" viewBox="0 0 188.05 121.74"><title>idb_Final</title><path d="M73.67,44.94c0-2.59,2.06-4.6,5.13-4.6s5.12,1.9,5.12,4.44c0,2.75-2.06,4.76-5.12,4.76S73.67,47.53,73.67,44.94Zm1,8.56h8.25V81.94H74.67Z" style="fill:#19135d"/><path d="M118.49,42.72V81.94h-7.87V78.66c-2.06,2.49-5.08,3.7-8.88,3.7-8,0-14.22-5.71-14.22-14.64s6.18-14.64,14.22-14.64a10.91,10.91,0,0,1,8.51,3.44V42.72Zm-8.08,25c0-4.91-3.18-7.87-7.25-7.87s-7.29,3-7.29,7.87S99,75.6,103.16,75.6,110.41,72.64,110.41,67.72Z" style="fill:#19135d"/><path d="M156.08,67.72c0,8.93-6.19,14.64-14.17,14.64-3.8,0-6.87-1.21-8.93-3.7v3.28H125.1V42.72h8.25v13.8a11,11,0,0,1,8.56-3.44C149.89,53.08,156.08,58.79,156.08,67.72Zm-8.35,0c0-4.91-3.12-7.87-7.24-7.87s-7.25,3-7.25,7.87,3.12,7.88,7.25,7.88S147.73,72.64,147.73,67.72Z" style="fill:#19135d"/><path d="M57.51,31.41H35.74A4.75,4.75,0,0,0,31,36.17V86.52a4.76,4.76,0,0,0,4.77,4.77H57.51a4.75,4.75,0,0,0,4.76-4.77V36.17A4.75,4.75,0,0,0,57.51,31.41ZM46.62,88.57a2,2,0,1,1,2-2A2.05,2.05,0,0,1,46.62,88.57Zm12.93-6.81H33.69V38.21H59.55Z" style="fill:#19135d"/><path d="M57.19,58.27v2.16l-10,5a1.57,1.57,0,0,1-1,0l-10.16-5V58.24L46.7,63.48Z" style="fill:#fe1f4d"/><path d="M57.19,53.44v2.17l-10,5a1.57,1.57,0,0,1-1,0l-10.16-5V53.41L46.7,58.65Z" style="fill:#fe1f4d"/><path d="M57.19,67.6v2.17l-10,5a1.44,1.44,0,0,1-1,0l-10.16-5V67.57L46.7,72.81Z" style="fill:#fe1f4d"/><path d="M57.19,62.78V65l-10,5a1.57,1.57,0,0,1-1,0l-10.16-5V62.75L46.7,68Z" style="fill:#fe1f4d"/><path d="M56.73,50.93l-8.61,4.33V53.13l6.12-3.06-6.12-3V44.88l8.61,4.31A1,1,0,0,1,56.73,50.93Z" style="fill:#fe1f4d"/><path d="M45.13,47l-6.12,3,6.12,3.06v2.13l-8.62-4.33a1,1,0,0,1,0-1.74l8.62-4.31Z" style="fill:#fe1f4d"/></svg>