<svg data-name="Layer 1" xmlns="http://www.w3.org/2000/svg" viewBox="0 0 188.05 121.74"><path d="M73.67 44.94c0-2.59 2.06-4.6 5.13-4.6s5.12 1.9 5.12 4.44c0 2.75-2.06 4.76-5.12 4.76s-5.13-2.01-5.13-4.6zm1 8.56h8.25v28.44h-8.25zm43.82-10.78v39.22h-7.87v-3.28c-2.06 2.49-5.08 3.7-8.88 3.7-8 0-14.22-5.71-14.22-14.64s6.18-14.64 14.22-14.64a10.91 10.91 0 018.51 3.44v-13.8zm-8.08 25c0-4.91-3.18-7.87-7.25-7.87s-7.29 3-7.29 7.87 3.13 7.88 7.29 7.88 7.25-2.96 7.25-7.88zm45.67 0c0 8.93-6.19 14.64-14.17 14.64-3.8 0-6.87-1.21-8.93-3.7v3.28h-7.88V42.72h8.25v13.8a11 11 0 018.56-3.44c7.98 0 14.17 5.71 14.17 14.64zm-8.35 0c0-4.91-3.12-7.87-7.24-7.87s-7.25 3-7.25 7.87 3.12 7.88 7.25 7.88 7.24-2.96 7.24-7.88zM57.51 31.41H35.74A4.75 4.75 0 0031 36.17v50.35a4.76 4.76 0 004.77 4.77h21.74a4.75 4.75 0 004.76-4.77V36.17a4.75 4.75 0 00-4.76-4.76zM46.62 88.57a2 2 0 112-2 2.05 2.05 0 01-2 2zm12.93-6.81H33.69V38.21h25.86z" fill="#19135d"/><path d="M57.19 58.27v2.16l-10 5a1.57 1.57 0 01-1 0l-10.16-5v-2.19l10.67 5.24z" fill="#fe1f4d"/><path d="M57.19 53.44v2.17l-10 5a1.57 1.57 0 01-1 0l-10.16-5v-2.2l10.67 5.24zm0 14.16v2.17l-10 5a1.44 1.44 0 01-1 0l-10.16-5v-2.2l10.67 5.24z" fill="#fe1f4d"/><path d="M57.19 62.78V65l-10 5a1.57 1.57 0 01-1 0l-10.16-5v-2.25L46.7 68zm-.46-11.85l-8.61 4.33v-2.13l6.12-3.06-6.12-3v-2.19l8.61 4.31a1 1 0 010 1.74zM45.13 47l-6.12 3 6.12 3.06v2.13l-8.62-4.33a1 1 0 010-1.74l8.62-4.31z" fill="#fe1f4d"/></svg>